# xmcd
#
# Track frame offsets: 
#        150
#        11804
#        22403
#        33315
#        41892
#        50826
#        61784
#        72101
#        81675
#        92479
#        103205
#        113423
#        126744
#        138486
#        147423
#        157154
#
# Disc length: 2240 seconds
#
# Revision: 0
# Processed by: cddbd v1.5.2PL0 Copyright (c) Steve Scherf et al.
# Submitted via: ExactAudioCopy v1.0b4
#
DISCID=f608be10
DTITLE=Big Joe Turner - Rhythm and Blues Years  LP2
DYEAR=1986
DGENRE=Blues
TTITLE0=After A While
TTITLE1=Trouble In Mind
TTITLE2=World Of Trouble
TTITLE3=Love Roller Coaster
TTITLE4=I Need A Girl
TTITLE5=Teenage Letter
TTITLE6=Wee Baby Blues
TTITLE7=Jump For Joy
TTITLE8=Sweet Sue
TTITLE9=My Reason For Living
TTITLE10=Love Oh Careless Love
TTITLE11=Got You On My Mind
TTITLE12=Chains Of Love
TTITLE13=My Little Honeydripper
TTITLE14=Tomorrow Night
TTITLE15=Honey Hush
EXTD=
EXTT0=
EXTT1=
EXTT2=
EXTT3=
EXTT4=
EXTT5=
EXTT6=
EXTT7=
EXTT8=
EXTT9=
EXTT10=
EXTT11=
EXTT12=
EXTT13=
EXTT14=
EXTT15=
PLAYORDER=
